<svg width="35" height="31" viewBox="0 0 35 31" fill="none" xmlns="http://www.w3.org/2000/svg">
<path d="M14.24 0.639995L15.08 1.6C11.96 3.84 9.12 6.76 6.56 10.36C4.24 13.8 3 16.8 2.84 19.36C4.92 18.24 6.52 17.68 7.64 17.68C9.56 17.68 11.16 18.24 12.44 19.36C13.72 20.48 14.36 22 14.36 23.92C14.36 25.68 13.72 27.24 12.44 28.6C11.16 29.88 9.6 30.52 7.76 30.52C5.68 30.52 4 29.88 2.72 28.6C1.44 27.32 0.800001 25.6 0.800001 23.44C0.72 18.8 2.04 14.44 4.76 10.36C7.48 6.36 10.64 3.12 14.24 0.639995ZM33.68 0.639995L34.52 1.6C31.4 3.84 28.56 6.76 26 10.36C23.68 13.8 22.44 16.8 22.28 19.36C24.36 18.24 25.96 17.68 27.08 17.68C29 17.68 30.6 18.24 31.88 19.36C33.16 20.48 33.8 22 33.8 23.92C33.8 25.68 33.16 27.24 31.88 28.6C30.6 29.88 29.04 30.52 27.2 30.52C25.12 30.52 23.44 29.88 22.16 28.6C20.88 27.32 20.24 25.6 20.24 23.44C20.16 18.8 21.48 14.44 24.2 10.36C26.92 6.36 30.08 3.12 33.68 0.639995Z" fill="white"/>
</svg>
