<svg width="35" height="31" viewBox="0 0 35 31" fill="none" xmlns="http://www.w3.org/2000/svg">
<path d="M20.76 30.36L19.92 29.4C23.04 27.16 25.88 24.24 28.44 20.64C30.76 17.2 32 14.2 32.16 11.64C30.08 12.76 28.48 13.32 27.36 13.32C25.44 13.32 23.84 12.76 22.56 11.64C21.28 10.52 20.64 9 20.64 7.08C20.64 5.32 21.28 3.76 22.56 2.4C23.84 1.12 25.4 0.480004 27.24 0.480004C29.32 0.480004 31 1.12 32.28 2.4C33.56 3.68 34.2 5.4 34.2 7.56001C34.28 12.2 32.96 16.56 30.24 20.64C27.52 24.64 24.36 27.88 20.76 30.36ZM1.32 30.36L0.479998 29.4C3.6 27.16 6.44 24.24 9 20.64C11.32 17.2 12.56 14.2 12.72 11.64C10.64 12.76 9.04 13.32 7.92 13.32C6 13.32 4.4 12.76 3.12 11.64C1.84 10.52 1.2 9 1.2 7.08C1.2 5.32 1.84 3.76 3.12 2.4C4.4 1.12 5.96 0.480004 7.8 0.480004C9.88 0.480004 11.56 1.12 12.84 2.4C14.12 3.68 14.76 5.4 14.76 7.56001C14.84 12.2 13.52 16.56 10.8 20.64C8.08 24.64 4.92 27.88 1.32 30.36Z" fill="white"/>
</svg>
